<svg width="260" height="122" viewBox="0 0 260 122" fill="none" xmlns="http://www.w3.org/2000/svg">
<rect width="7" height="7" fill="#354347"/>
<rect x="23" width="7" height="7" fill="#354347"/>
<rect x="46" width="7" height="7" fill="#354347"/>
<rect x="69" width="7" height="7" fill="#354347"/>
<rect x="92" width="7" height="7" fill="#354347"/>
<rect x="115" width="7" height="7" fill="#354347"/>
<rect x="138" width="7" height="7" fill="#354347"/>
<rect x="161" width="7" height="7" fill="#354347"/>
<rect x="184" width="7" height="7" fill="#354347"/>
<rect x="207" width="7" height="7" fill="#354347"/>
<rect x="230" width="7" height="7" fill="#354347"/>
<rect x="253" width="7" height="7" fill="#354347"/>
<rect y="23" width="7" height="7" fill="#354347"/>
<rect x="23" y="23" width="7" height="7" fill="#354347"/>
<rect x="46" y="23" width="7" height="7" fill="#354347"/>
<rect x="69" y="23" width="7" height="7" fill="#354347"/>
<rect x="92" y="23" width="7" height="7" fill="#354347"/>
<rect x="115" y="23" width="7" height="7" fill="#354347"/>
<rect x="138" y="23" width="7" height="7" fill="#354347"/>
<rect x="161" y="23" width="7" height="7" fill="#354347"/>
<rect x="184" y="23" width="7" height="7" fill="#354347"/>
<rect x="207" y="23" width="7" height="7" fill="#354347"/>
<rect x="230" y="23" width="7" height="7" fill="#354347"/>
<rect x="253" y="23" width="7" height="7" fill="#354347"/>
<rect y="46" width="7" height="7" fill="#354347"/>
<rect x="23" y="46" width="7" height="7" fill="#354347"/>
<rect x="46" y="46" width="7" height="7" fill="#354347"/>
<rect x="69" y="46" width="7" height="7" fill="#354347"/>
<rect x="92" y="46" width="7" height="7" fill="#354347"/>
<rect x="115" y="46" width="7" height="7" fill="#354347"/>
<rect x="138" y="46" width="7" height="7" fill="#354347"/>
<rect x="161" y="46" width="7" height="7" fill="#354347"/>
<rect x="184" y="46" width="7" height="7" fill="#354347"/>
<rect x="207" y="46" width="7" height="7" fill="#354347"/>
<rect x="230" y="46" width="7" height="7" fill="#354347"/>
<rect x="253" y="46" width="7" height="7" fill="#354347"/>
<rect y="69" width="7" height="7" fill="#354347"/>
<rect x="23" y="69" width="7" height="7" fill="#354347"/>
<rect x="46" y="69" width="7" height="7" fill="#354347"/>
<rect x="69" y="69" width="7" height="7" fill="#354347"/>
<rect x="92" y="69" width="7" height="7" fill="#354347"/>
<rect x="115" y="69" width="7" height="7" fill="#354347"/>
<rect x="138" y="69" width="7" height="7" fill="#354347"/>
<rect x="161" y="69" width="7" height="7" fill="#354347"/>
<rect x="184" y="69" width="7" height="7" fill="#354347"/>
<rect x="207" y="69" width="7" height="7" fill="#354347"/>
<rect x="230" y="69" width="7" height="7" fill="#354347"/>
<rect x="253" y="69" width="7" height="7" fill="#354347"/>
<rect y="92" width="7" height="7" fill="#354347"/>
<rect x="23" y="92" width="7" height="7" fill="#354347"/>
<rect x="46" y="92" width="7" height="7" fill="#354347"/>
<rect x="69" y="92" width="7" height="7" fill="#354347"/>
<rect x="92" y="92" width="7" height="7" fill="#354347"/>
<rect x="115" y="92" width="7" height="7" fill="#354347"/>
<rect x="138" y="92" width="7" height="7" fill="#354347"/>
<rect x="161" y="92" width="7" height="7" fill="#354347"/>
<rect x="184" y="92" width="7" height="7" fill="#354347"/>
<rect x="207" y="92" width="7" height="7" fill="#354347"/>
<rect x="230" y="92" width="7" height="7" fill="#354347"/>
<rect x="253" y="92" width="7" height="7" fill="#354347"/>
<rect y="115" width="7" height="7" fill="#354347"/>
<rect x="23" y="115" width="7" height="7" fill="#354347"/>
<rect x="46" y="115" width="7" height="7" fill="#354347"/>
<rect x="69" y="115" width="7" height="7" fill="#354347"/>
<rect x="92" y="115" width="7" height="7" fill="#354347"/>
<rect x="115" y="115" width="7" height="7" fill="#354347"/>
<rect x="138" y="115" width="7" height="7" fill="#354347"/>
<rect x="161" y="115" width="7" height="7" fill="#354347"/>
<rect x="184" y="115" width="7" height="7" fill="#354347"/>
<rect x="207" y="115" width="7" height="7" fill="#354347"/>
<rect x="230" y="115" width="7" height="7" fill="#354347"/>
<rect x="253" y="115" width="7" height="7" fill="#354347"/>
</svg>
